<svg xmlns="http://www.w3.org/2000/svg" width="167px" height="159px" viewBox="741.75 301.5 125.25 119.25">
<path fill-rule="nonzero" fill="rgb(88.626099%, 93.331909%, 95.292664%)" fill-opacity="1" stroke-width="1.595" stroke-linecap="round" stroke-linejoin="round" stroke="rgb(14.117432%, 24.313354%, 25.881958%)" stroke-opacity="1" stroke-miterlimit="4" d="M 768.351562 318.324219 L 832.875 318.324219 C 836.878906 318.324219 840.125 321.570312 840.125 325.574219 L 840.125 403.148438 C 840.125 407.152344 836.878906 410.398438 832.875 410.398438 L 768.351562 410.398438 C 764.347656 410.398438 761.101562 407.152344 761.101562 403.148438 L 761.101562 325.574219 C 761.101562 321.570312 764.347656 318.324219 768.351562 318.324219 Z M 768.351562 318.324219 " />
<path fill-rule="nonzero" fill="rgb(100%, 100%, 100%)" fill-opacity="1" stroke-width="1.595" stroke-linecap="round" stroke-linejoin="round" stroke="rgb(14.117432%, 24.313354%, 25.881958%)" stroke-opacity="1" stroke-miterlimit="4" d="M 758.925781 311.800781 L 823.449219 311.800781 C 827.453125 311.800781 830.699219 315.046875 830.699219 319.050781 L 830.699219 396.625 C 830.699219 400.628906 827.453125 403.875 823.449219 403.875 L 758.925781 403.875 C 754.921875 403.875 751.675781 400.628906 751.675781 396.625 L 751.675781 319.050781 C 751.675781 315.046875 754.921875 311.800781 758.925781 311.800781 Z M 758.925781 311.800781 " />
<path fill-rule="nonzero" fill="rgb(84.312439%, 92.155457%, 88.233948%)" fill-opacity="1" stroke-width="1.595" stroke-linecap="round" stroke-linejoin="round" stroke="rgb(14.117432%, 24.313354%, 25.881958%)" stroke-opacity="1" stroke-miterlimit="4" d="M 765.449219 331.375 L 776.324219 331.375 L 776.324219 342.25 L 765.449219 342.25 Z M 765.449219 358.925781 L 776.324219 358.925781 L 776.324219 369.800781 L 765.449219 369.800781 Z M 765.449219 386.476562 L 776.324219 386.476562 L 776.324219 397.351562 L 765.449219 397.351562 Z M 765.449219 386.476562 " />
<path fill="none" stroke-width="2.9" stroke-linecap="round" stroke-linejoin="round" stroke="rgb(14.117432%, 24.313354%, 25.881958%)" stroke-opacity="1" stroke-miterlimit="4" d="M 787.199219 335.726562 L 818.375 335.726562 M 787.199219 363.273438 L 818.375 363.273438 M 787.199219 390.824219 L 808.226562 390.824219 " />
<path fill="none" stroke-width="2.9" stroke-linecap="round" stroke-linejoin="round" stroke="rgb(18.03894%, 39.99939%, 32.548523%)" stroke-opacity="1" stroke-miterlimit="4" d="M 838.675781 341.523438 L 856.074219 341.523438 L 856.074219 377.773438 L 844.476562 377.773438 M 848.101562 371.976562 L 841.574219 377.773438 L 848.101562 383.574219 " />
</svg>
